<svg xmlns="http://www.w3.org/2000/svg">
  <symbol id="puriihuaman" viewBox="0 0 24 24"><svg viewBox="0 0 6 9" fill="#11111b" xmlns="http://www.w3.org/2000/svg"><path d="M2.328 7.56C2.328 7.84 2.272 8.072 2.16 8.256C2.048 8.44 1.908 8.588 1.74 8.7C1.572 8.804 1.384 8.88 1.176 8.928C0.976 8.976 0.784 9 0.6 9V1.932C0.6 1.404 0.72 0.996 0.96 0.707999C1.2 0.419999 1.548 0.275999 2.004 0.275999C2.228 0.275999 2.42 0.316 2.58 0.396C2.74 0.468 2.868 0.564 2.964 0.684C3.06 0.804 3.128 0.944 3.168 1.104C3.216 1.256 3.24 1.416 3.24 1.584V1.704C3.184 1.656 3.12 1.624 3.048 1.608C2.984 1.584 2.92 1.572 2.856 1.572C2.736 1.572 2.64 1.596 2.568 1.644C2.504 1.684 2.452 1.74 2.412 1.812C2.38 1.876 2.356 1.952 2.34 2.04C2.332 2.128 2.328 2.22 2.328 2.316V7.56ZM3.384 0.3C3.424 0.3 3.456 0.3 3.48 0.3C3.512 0.292 3.548 0.288 3.588 0.288C4.076 0.288 4.452 0.42 4.716 0.684C4.98 0.948 5.112 1.372 5.112 1.956V4.104C5.112 4.368 5.072 4.6 4.992 4.8C4.92 5 4.82 5.172 4.692 5.316C4.572 5.452 4.424 5.556 4.248 5.628C4.08 5.7 3.9 5.736 3.708 5.736C3.46 5.736 3.256 5.696 3.096 5.616C2.936 5.536 2.808 5.432 2.712 5.304C2.624 5.168 2.56 5.016 2.52 4.848C2.488 4.68 2.472 4.512 2.472 4.344C2.584 4.408 2.712 4.44 2.856 4.44C2.976 4.44 3.068 4.42 3.132 4.38C3.204 4.332 3.256 4.276 3.288 4.212C3.328 4.14 3.352 4.06 3.36 3.972C3.376 3.884 3.384 3.792 3.384 3.696V0.3Z" fill="#11111b"/></svg></symbol>
</svg>