<svg xmlns="http://www.w3.org/2000/svg">
  <!-- + puriihuaman -->
  <symbol id="puriihuaman" viewBox="0 0 24 24"><svg viewBox="0 0 6 9" fill="none" xmlns="http://www.w3.org/2000/svg"><path d="M2.328 7.56C2.328 7.84 2.272 8.072 2.16 8.256C2.048 8.44 1.908 8.588 1.74 8.7C1.572 8.804 1.384 8.88 1.176 8.928C0.976 8.976 0.784 9 0.6 9V1.932C0.6 1.404 0.72 0.996 0.96 0.707999C1.2 0.419999 1.548 0.275999 2.004 0.275999C2.228 0.275999 2.42 0.316 2.58 0.396C2.74 0.468 2.868 0.564 2.964 0.684C3.06 0.804 3.128 0.944 3.168 1.104C3.216 1.256 3.24 1.416 3.24 1.584V1.704C3.184 1.656 3.12 1.624 3.048 1.608C2.984 1.584 2.92 1.572 2.856 1.572C2.736 1.572 2.64 1.596 2.568 1.644C2.504 1.684 2.452 1.74 2.412 1.812C2.38 1.876 2.356 1.952 2.34 2.04C2.332 2.128 2.328 2.22 2.328 2.316V7.56ZM3.384 0.3C3.424 0.3 3.456 0.3 3.48 0.3C3.512 0.292 3.548 0.288 3.588 0.288C4.076 0.288 4.452 0.42 4.716 0.684C4.98 0.948 5.112 1.372 5.112 1.956V4.104C5.112 4.368 5.072 4.6 4.992 4.8C4.92 5 4.82 5.172 4.692 5.316C4.572 5.452 4.424 5.556 4.248 5.628C4.08 5.7 3.9 5.736 3.708 5.736C3.46 5.736 3.256 5.696 3.096 5.616C2.936 5.536 2.808 5.432 2.712 5.304C2.624 5.168 2.56 5.016 2.52 4.848C2.488 4.68 2.472 4.512 2.472 4.344C2.584 4.408 2.712 4.44 2.856 4.44C2.976 4.44 3.068 4.42 3.132 4.38C3.204 4.332 3.256 4.276 3.288 4.212C3.328 4.14 3.352 4.06 3.36 3.972C3.376 3.884 3.384 3.792 3.384 3.696V0.3Z" fill="currentColor"/></svg></symbol>
  <!-- + documentation -->
  <symbol id="documentation" viewBox="0 0 24 24"><svg xmlns="http://www.w3.org/2000/svg" width="24" height="24" viewBox="0 0 24 24" fill="none" stroke="currentColor" stroke-width="2" stroke-linecap="round" stroke-linejoin="round" class="lucide lucide-book-open"><path d="M2 3h6a4 4 0 0 1 4 4v14a3 3 0 0 0-3-3H2z"/><path d="M22 3h-6a4 4 0 0 0-4 4v14a3 3 0 0 1 3-3h7z"/></svg></symbol>
  <!-- + graduation -->
  <symbol id="graduation" viewBox="0 0 24 24"><svg xmlns="http://www.w3.org/2000/svg" width="24" height="24" viewBox="0 0 24 24" fill="none" stroke="currentColor" stroke-width="2" stroke-linecap="round" stroke-linejoin="round" class="lucide lucide-graduation-cap"><path d="M22 10v6M2 10l10-5 10 5-10 5z"/><path d="M6 12v5c3 3 9 3 12 0v-5"/></svg></symbol>
  <!-- + cpu -->
  <symbol id="cpu" viewBox="0 0 24 24"><svg xmlns="http://www.w3.org/2000/svg" width="24" height="24" viewBox="0 0 24 24" fill="none" stroke="currentColor" stroke-width="2" stroke-linecap="round" stroke-linejoin="round" class="lucide lucide-cpu"><rect x="4" y="4" width="16" height="16" rx="2" /><rect x="9" y="9" width="6" height="6" /><path d="M15 2v2" /><path d="M15 20v2" /><path d="M2 15h2" /><path d="M2 9h2" /><path d="M20 15h2" /><path d="M20 9h2" /><path d="M9 2v2" /><path d="M9 20v2" /></svg></symbol>
  <!-- + lightbulb -->
  <symbol id="lightbulb" viewBox="0 0 24 24"><svg xmlns="http://www.w3.org/2000/svg" width="24" height="24" viewBox="0 0 24 24" fill="none" stroke="currentColor" stroke-width="2" stroke-linecap="round" stroke-linejoin="round" class="lucide lucide-lightbulb"><path d="M15 14c.2-1 .7-1.7 1.5-2.5 1-.9 1.5-2.2 1.5-3.5A6 6 0 0 0 6 8c0 1 .2 2.2 1.5 3.5.7.7 1.3 1.5 1.5 2.5"/><path d="M9 18h6"/><path d="M10 22h4"/></svg></symbol>
  <!-- + calendar -->
  <symbol id="calendar" viewBox="0 0 24 24"><svg xmlns="http://www.w3.org/2000/svg" width="24" height="24" viewBox="0 0 24 24" fill="none" stroke="currentColor" stroke-width="2" stroke-linecap="round" stroke-linejoin="round" class="lucide lucide-calendar-days"><rect width="18" height="18" x="3" y="4" rx="2" ry="2"/><line x1="16" x2="16" y1="2" y2="6"/><line x1="8" x2="8" y1="2" y2="6"/><line x1="3" x2="21" y1="10" y2="10"/><path d="M8 14h.01"/><path d="M12 14h.01"/><path d="M16 14h.01"/><path d="M8 18h.01"/><path d="M12 18h.01"/><path d="M16 18h.01"/></svg></symbol>
  <!-- + effective-design -->
  <symbol id="effective-design" viewBox="0 0 24 24"><svg xmlns="http://www.w3.org/2000/svg" width="24" height="24" viewBox="0 0 24 24" fill="none" stroke="currentColor" stroke-width="1.5" stroke-linecap="round" stroke-linejoin="round" class="lucide lucide-server-cog"><circle cx="12" cy="12" r="3"/><path d="M4.5 10H4a2 2 0 0 1-2-2V4a2 2 0 0 1 2-2h16a2 2 0 0 1 2 2v4a2 2 0 0 1-2 2h-.5"/><path d="M4.5 14H4a2 2 0 0 0-2 2v4a2 2 0 0 0 2 2h16a2 2 0 0 0 2-2v-4a2 2 0 0 0-2-2h-.5"/><path d="M6 6h.01"/><path d="M6 18h.01"/><path d="m15.7 13.4-.9-.3"/><path d="m9.2 10.9-.9-.3"/><path d="m10.6 15.7.3-.9"/><path d="m13.6 15.7-.4-1"/><path d="m10.8 9.3-.4-1"/><path d="m8.3 13.6 1-.4"/><path d="m14.7 10.8 1-.4"/><path d="m13.4 8.3-.3.9"/></svg></symbol>
  <!-- + frontend -->
  <symbol id="frontend" viewBox="0 0 24 24"><svg xmlns="http://www.w3.org/2000/svg" width="24" height="24" viewBox="0 0 24 24" fill="none" stroke="currentColor" stroke-width="1.5" stroke-linecap="round" stroke-linejoin="round" class="lucide lucide-monitor-speaker"><path d="M5.5 20H8"/><path d="M17 9h.01"/><rect width="10" height="16" x="12" y="4" rx="2"/><path d="M8 6H4a2 2 0 0 0-2 2v6a2 2 0 0 0 2 2h4"/><circle cx="17" cy="15" r="1"/></svg></symbol>
  <!-- + design -->
  <symbol id="design" viewBox="0 0 24 24"><svg xmlns="http://www.w3.org/2000/svg" width="24" height="24" viewBox="0 0 24 24" fill="none" stroke="currentColor" stroke-width="1.5" stroke-linecap="round" stroke-linejoin="round" class="lucide lucide-tablet-smartphone"><rect width="10" height="14" x="3" y="8" rx="2"/><path d="M5 4a2 2 0 0 1 2-2h12a2 2 0 0 1 2 2v16a2 2 0 0 1-2 2h-2.4"/><path d="M8 18h.01"/></svg></symbol>
  <!-- + arrow-right -->
 <symbol id="arrow-right" viewBox="0 0 24 24"><svg xmlns="http://www.w3.org/2000/svg" width="24" height="24" viewBox="0 0 24 24" fill="none" stroke="currentColor" stroke-width="2" stroke-linecap="round" stroke-linejoin="round" class="lucide lucide-chevron-right"><path d="m9 18 6-6-6-6"/></svg></symbol>
  <!-- + arrow-left -->
  <symbol id="arrow-left" viewBox="0 0 24 24"><svg xmlns="http://www.w3.org/2000/svg" width="24" height="24" viewBox="0 0 24 24" fill="none" stroke="currentColor" stroke-width="2" stroke-linecap="round" stroke-linejoin="round" class="lucide lucide-chevron-left"><path d="m15 18-6-6 6-6"/></svg></symbol>
  <!-- + link -->
  <symbol id="link" viewBox="0 0 24 24"><svg xmlns="http://www.w3.org/2000/svg" width="24" height="24" viewBox="0 0 24 24" fill="none" stroke="currentColor" stroke-width="2" stroke-linecap="round" stroke-linejoin="round" class="lucide lucide-link-2"><path d="M9 17H7A5 5 0 0 1 7 7h2"/><path d="M15 7h2a5 5 0 1 1 0 10h-2"/><line x1="8" x2="16" y1="12" y2="12"/></svg></symbol>
  <!-- + sun -->
  <symbol id="sun" viewBox="0 0 24 24"><svg xmlns="http://www.w3.org/2000/svg" width="24" height="24" viewBox="0 0 24 24" fill="none" stroke="currentColor" stroke-width="2" stroke-linecap="round" stroke-linejoin="round" class="lucide lucide-sun-medium"><circle cx="12" cy="12" r="4"/><path d="M12 3v1"/><path d="M12 20v1"/><path d="M3 12h1"/><path d="M20 12h1"/><path d="m18.364 5.636-.707.707"/><path d="m6.343 17.657-.707.707"/><path d="m5.636 5.636.707.707"/><path d="m17.657 17.657.707.707"/></svg></symbol>
  <!-- + moon -->
  <symbol id="moon" viewBox="0 0 24 24"><svg xmlns="http://www.w3.org/2000/svg" width="24" height="24" viewBox="0 0 24 24" fill="none" stroke="currentColor" stroke-width="2" stroke-linecap="round" stroke-linejoin="round" class="lucide lucide-moon-star"><path d="M12 3a6 6 0 0 0 9 9 9 9 0 1 1-9-9Z"/><path d="M19 3v4"/><path d="M21 5h-4"/></svg></symbol>

  <!-- # Networks -->
  <!-- + twitter -->
  <symbol id="twitter" viewBox="0 0 24 24"><svg xmlns="http://www.w3.org/2000/svg" width="24" height="24" viewBox="0 0 24 24" fill="none" stroke="currentColor" stroke-width="2" stroke-linecap="round" stroke-linejoin="round" class="lucide lucide-twitter"><path d="M22 4s-.7 2.1-2 3.4c1.6 10-9.4 17.3-18 11.6 2.2.1 4.4-.6 6-2C3 15.5.5 9.6 3 5c2.2 2.6 5.6 4.1 9 4-.9-4.2 4-6.6 7-3.8 1.1 0 3-1.2 3-1.2z"/></svg></symbol>
  <!-- + linkedin -->
  <symbol id="linkedin" viewBox="0 0 256 256"><svg width="256" height="256" xmlns="http://www.w3.org/2000/svg" preserveAspectRatio="xMidYMid" viewBox="0 0 256 256"><path d="M218.123 218.127h-37.931v-59.403c0-14.165-.253-32.4-19.728-32.4-19.756 0-22.779 15.434-22.779 31.369v60.43h-37.93V95.967h36.413v16.694h.51a39.907 39.907 0 0 1 35.928-19.733c38.445 0 45.533 25.288 45.533 58.186l-.016 67.013ZM56.955 79.27c-12.157.002-22.014-9.852-22.016-22.009-.002-12.157 9.851-22.014 22.008-22.016 12.157-.003 22.014 9.851 22.016 22.008A22.013 22.013 0 0 1 56.955 79.27m18.966 138.858H37.95V95.967h37.97v122.16ZM237.033.018H18.89C8.58-.098.125 8.161-.001 18.471v219.053c.122 10.315 8.576 18.582 18.89 18.474h218.144c10.336.128 18.823-8.139 18.966-18.474V18.454c-.147-10.33-8.635-18.588-18.966-18.453" fill="current"/></svg></symbol>

  <!-- # Skills -->
  <!-- + java -->
  <symbol id="java" viewBox="0 0 256 346"><svg xmlns="http://www.w3.org/2000/svg" preserveAspectRatio="xMidYMid" viewBox="0 0 256 346"><path d="M83 267s-14 8 9 11c27 3 41 2 71-3 0 0 8 5 19 9-67 29-153-2-99-17M74 230s-15 11 8 13c29 3 52 3 92-4 0 0 6 5 15 8-82 24-173 2-115-17" fill="#5382A1"/><path d="M144 166c17 19-4 36-4 36s42-22 22-49c-18-26-32-38 44-82 0 0-119 29-62 95" fill="#E76F00"/><path d="M233 295s10 8-10 15c-39 12-163 15-197 0-12-5 11-13 18-14l12-2c-14-9-89 19-38 28 138 22 251-10 215-27M89 190s-63 15-22 21c17 2 51 2 83-1 26-2 52-7 52-7l-16 9c-64 16-187 8-151-9 30-14 54-13 54-13M202 253c64-33 34-66 13-61l-7 2s2-3 6-5c41-14 73 43-14 66l2-2" fill="#5382A1"/><path d="M162 0s36 36-34 91c-56 45-12 70 0 99-32-30-56-56-40-80 23-35 89-53 74-110" fill="#E76F00"/><path d="M95 345c62 4 158-3 160-32 0 0-4 11-51 20-53 10-119 9-158 2 0 0 8 7 49 10" fill="#5382A1"/></svg></symbol>
  <!-- + github -->
  <symbol id="github" viewBox="0 0 24 24"><svg xmlns="http://www.w3.org/2000/svg" width="24" height="24" viewBox="0 0 24 24" fill="none" stroke="currentColor" stroke-width="2" stroke-linecap="round" stroke-linejoin="round" class="lucide lucide-github"><path d="M15 22v-4a4.8 4.8 0 0 0-1-3.5c3 0 6-2 6-5.5.08-1.25-.27-2.48-1-3.5.28-1.15.28-2.35 0-3.5 0 0-1 0-3 1.5-2.64-.5-5.36-.5-8 0C6 2 5 2 5 2c-.3 1.15-.3 2.35 0 3.5A5.403 5.403 0 0 0 4 9c0 3.5 3 5.5 6 5.5-.39.49-.68 1.05-.85 1.65-.17.6-.22 1.23-.15 1.85v4"/><path d="M9 18c-4.51 2-5-2-7-2"/></svg></symbol>
  <!-- + javaScript -->
  <symbol id="javascript" viewBox="0 0 17 17"><svg viewBox="0 0 17 17" fill="none" xmlns="http://www.w3.org/2000/svg"><g clip-path="url(#clip0_1905_68)"><path d="M12.6709 0.414062H4.1709C2.09983 0.414062 0.420898 2.09299 0.420898 4.16406V12.6641C0.420898 14.7351 2.09983 16.4141 4.1709 16.4141H12.6709C14.742 16.4141 16.4209 14.7351 16.4209 12.6641V4.16406C16.4209 2.09299 14.742 0.414062 12.6709 0.414062Z" fill="#F0DB4F"/><path d="M4.62799 13.785L5.85237 13.044C6.08862 13.4628 6.30349 13.8172 6.81893 13.8172C7.31299 13.8172 7.62449 13.624 7.62449 12.8722V7.75983H9.12812V12.8935C9.12812 14.4508 8.21524 15.1596 6.88337 15.1596C5.68055 15.1596 4.98237 14.5367 4.62793 13.7849M9.9448 13.6239L11.1691 12.9151C11.4914 13.4414 11.9102 13.828 12.6512 13.828C13.2743 13.828 13.6716 13.5165 13.6716 13.0869C13.6716 12.5714 13.2634 12.3888 12.5761 12.0881L12.2002 11.927C11.1154 11.4652 10.3958 10.8852 10.3958 9.66083C10.3958 8.53308 11.2551 7.67383 12.5976 7.67383C13.5535 7.67383 14.2409 8.00683 14.7349 8.87677L13.5642 9.62858C13.3064 9.16677 13.0272 8.9842 12.5976 8.9842C12.1572 8.9842 11.878 9.26345 11.878 9.62858C11.878 10.0796 12.1572 10.2623 12.8016 10.5416L13.1775 10.7026C14.4556 11.2505 15.1752 11.8088 15.1752 13.0654C15.1752 14.4188 14.1119 15.1598 12.6835 15.1598C11.2873 15.1598 10.3851 14.4939 9.9448 13.6239Z" fill="#323330"/></g><defs><clipPath id="clip0_1905_68"><rect width="16" height="16" fill="white" transform="translate(0.420898 0.414062)"/></clipPath></defs></svg></symbol>
  <!-- + typescript -->
  <symbol id="typescript" viewBox="0 0 256 256"><svg viewBox="0 0 256 256" width="256" height="256" xmlns="http://www.w3.org/2000/svg" preserveAspectRatio="xMidYMid"><path d="M20 0h216c11.046 0 20 8.954 20 20v216c0 11.046-8.954 20-20 20H20c-11.046 0-20-8.954-20-20V20C0 8.954 8.954 0 20 0Z" fill="#3178C6"/><path d="M150.518 200.475v27.62c4.492 2.302 9.805 4.028 15.938 5.179 6.133 1.151 12.597 1.726 19.393 1.726 6.622 0 12.914-.633 18.874-1.899 5.96-1.266 11.187-3.352 15.678-6.257 4.492-2.906 8.048-6.704 10.669-11.394 2.62-4.689 3.93-10.486 3.93-17.391 0-5.006-.749-9.394-2.246-13.163a30.748 30.748 0 0 0-6.479-10.055c-2.821-2.935-6.205-5.567-10.149-7.898-3.945-2.33-8.394-4.531-13.347-6.602-3.628-1.497-6.881-2.949-9.761-4.359-2.879-1.41-5.327-2.848-7.342-4.316-2.016-1.467-3.571-3.021-4.665-4.661-1.094-1.64-1.641-3.495-1.641-5.567 0-1.899.489-3.61 1.468-5.135s2.362-2.834 4.147-3.927c1.785-1.094 3.973-1.942 6.565-2.547 2.591-.604 5.471-.906 8.638-.906 2.304 0 4.737.173 7.299.518 2.563.345 5.14.877 7.732 1.597a53.669 53.669 0 0 1 7.558 2.719 41.7 41.7 0 0 1 6.781 3.797v-25.807c-4.204-1.611-8.797-2.805-13.778-3.582-4.981-.777-10.697-1.165-17.147-1.165-6.565 0-12.784.705-18.658 2.115-5.874 1.409-11.043 3.61-15.506 6.602-4.463 2.993-7.99 6.805-10.582 11.437-2.591 4.632-3.887 10.17-3.887 16.615 0 8.228 2.375 15.248 7.127 21.06 4.751 5.811 11.963 10.731 21.638 14.759a291.458 291.458 0 0 1 10.625 4.575c3.283 1.496 6.119 3.049 8.509 4.66 2.39 1.611 4.276 3.366 5.658 5.265 1.382 1.899 2.073 4.057 2.073 6.474a9.901 9.901 0 0 1-1.296 4.963c-.863 1.524-2.174 2.848-3.93 3.97-1.756 1.122-3.945 1.999-6.565 2.632-2.62.633-5.687.95-9.2.95-5.989 0-11.92-1.05-17.794-3.151-5.875-2.1-11.317-5.25-16.327-9.451Zm-46.036-68.733H140V109H41v22.742h35.345V233h28.137V131.742Z" fill="#FFF"/></svg></symbol>
  <!-- + angular -->
  <symbol id="angular" viewBox="0 0 16 16"><svg viewBox="0 0 16 16" fill="none" xmlns="http://www.w3.org/2000/svg"><path d="M7.99991 1L1.48291 3.324L2.47691 11.941L7.99991 15L13.5229 11.941L14.5169 3.324L7.99991 1Z" fill="#DD0031"/><path d="M8 1V2.554V2.547V15L13.523 11.941L14.517 3.324L8 1Z" fill="#C3002F"/><path d="M8.00002 2.54688L3.92603 11.6819H5.44503L6.26402 9.63787H9.72202L10.541 11.6819H12.06L8.00002 2.54688ZM9.19002 8.37787H6.81002L8.00002 5.51487L9.19002 8.37787Z" fill="white"/></svg></symbol>
  <!-- + reactjs -->
  <symbol id="reactjs" viewBox="0 0 256 228"><svg viewBox="0 0 256 228" version="1.1" xmlns="http://www.w3.org/2000/svg" xmlns:xlink="http://www.w3.org/1999/xlink" preserveAspectRatio="xMidYMid"><g><path d="M210.483381,73.8236374 C207.827698,72.9095503 205.075867,72.0446761 202.24247,71.2267368 C202.708172,69.3261098 203.135596,67.4500894 203.515631,65.6059664 C209.753843,35.3248922 205.675082,10.9302478 191.747328,2.89849283 C178.392359,-4.80289661 156.551327,3.22703567 134.492936,22.4237776 C132.371761,24.2697233 130.244662,26.2241201 128.118477,28.2723861 C126.701777,26.917204 125.287358,25.6075897 123.876584,24.3549348 C100.758745,3.82852863 77.5866802,-4.82157937 63.6725966,3.23341515 C50.3303869,10.9571328 46.3792156,33.8904224 51.9945178,62.5880206 C52.5367729,65.3599011 53.1706189,68.1905639 53.8873982,71.068617 C50.6078941,71.9995641 47.4418534,72.9920277 44.4125156,74.0478303 C17.3093297,83.497195 0,98.3066828 0,113.667995 C0,129.533287 18.5815786,145.446423 46.8116526,155.095373 C49.0394553,155.856809 51.3511025,156.576778 53.7333796,157.260293 C52.9600965,160.37302 52.2875179,163.423318 51.7229345,166.398431 C46.3687351,194.597975 50.5500231,216.989464 63.8566899,224.664425 C77.6012619,232.590464 100.66852,224.443422 123.130185,204.809231 C124.905501,203.257196 126.687196,201.611293 128.472081,199.886102 C130.785552,202.113904 133.095375,204.222319 135.392897,206.199955 C157.14963,224.922338 178.637969,232.482469 191.932332,224.786092 C205.663234,216.837268 210.125675,192.78347 204.332202,163.5181 C203.88974,161.283006 203.374826,158.99961 202.796573,156.675661 C204.416503,156.196743 206.006814,155.702335 207.557482,155.188332 C236.905331,145.46465 256,129.745175 256,113.667995 C256,98.2510906 238.132466,83.3418093 210.483381,73.8236374 L210.483381,73.8236374 Z M204.118035,144.807565 C202.718197,145.270987 201.281904,145.718918 199.818271,146.153177 C196.578411,135.896354 192.205739,124.989735 186.854729,113.72131 C191.961041,102.721277 196.164656,91.9540963 199.313837,81.7638014 C201.93261,82.5215915 204.474374,83.3208483 206.923636,84.1643056 C230.613348,92.3195488 245.063763,104.377206 245.063763,113.667995 C245.063763,123.564379 229.457753,136.411268 204.118035,144.807565 L204.118035,144.807565 Z M193.603754,165.642007 C196.165567,178.582766 196.531475,190.282717 194.834536,199.429057 C193.309843,207.64764 190.243595,213.12715 186.452366,215.321689 C178.384612,219.991462 161.131788,213.921395 142.525146,197.909832 C140.392124,196.074366 138.243609,194.114502 136.088259,192.040261 C143.301619,184.151133 150.510878,174.979732 157.54698,164.793993 C169.922699,163.695814 181.614905,161.900447 192.218042,159.449363 C192.740247,161.555956 193.204126,163.621993 193.603754,165.642007 L193.603754,165.642007 Z M87.2761866,214.514686 C79.3938934,217.298414 73.1160375,217.378157 69.3211631,215.189998 C61.2461189,210.532528 57.8891498,192.554265 62.4682434,168.438039 C62.9927272,165.676183 63.6170041,162.839142 64.3365173,159.939216 C74.8234575,162.258154 86.4299951,163.926841 98.8353334,164.932519 C105.918826,174.899534 113.336329,184.06091 120.811247,192.08264 C119.178102,193.65928 117.551336,195.16028 115.933685,196.574699 C106.001303,205.256705 96.0479605,211.41654 87.2761866,214.514686 L87.2761866,214.514686 Z M50.3486141,144.746959 C37.8658105,140.48046 27.5570398,134.935332 20.4908634,128.884403 C14.1414664,123.446815 10.9357817,118.048415 10.9357817,113.667995 C10.9357817,104.34622 24.8334611,92.4562517 48.0123604,84.3748281 C50.8247961,83.3942121 53.7689223,82.4701001 56.8242337,81.6020363 C60.0276398,92.0224477 64.229889,102.917218 69.3011135,113.93411 C64.1642716,125.11459 59.9023288,136.182975 56.6674809,146.725506 C54.489347,146.099407 52.3791089,145.440499 50.3486141,144.746959 L50.3486141,144.746959 Z M62.7270678,60.4878073 C57.9160346,35.9004118 61.1112387,17.3525532 69.1516515,12.6982729 C77.7160924,7.74005624 96.6544653,14.8094222 116.614922,32.5329619 C117.890816,33.6657739 119.171723,34.8514442 120.456275,36.0781256 C113.018267,44.0647686 105.66866,53.1573386 98.6480514,63.0655695 C86.6081646,64.1815215 75.0831931,65.9741531 64.4868907,68.3746571 C63.8206914,65.6948233 63.2305903,63.0619242 62.7270678,60.4878073 L62.7270678,60.4878073 Z M173.153901,87.7550367 C170.620796,83.3796304 168.020249,79.1076627 165.369124,74.9523483 C173.537126,75.9849113 181.362914,77.3555864 188.712066,79.0329319 C186.505679,86.1041206 183.755673,93.4974728 180.518546,101.076741 C178.196419,96.6680702 175.740322,92.2229454 173.153901,87.7550367 L173.153901,87.7550367 Z M128.122121,43.8938899 C133.166461,49.3588189 138.218091,55.4603279 143.186789,62.0803968 C138.179814,61.8439007 133.110868,61.720868 128.000001,61.720868 C122.937434,61.720868 117.905854,61.8411667 112.929865,62.0735617 C117.903575,55.515009 122.99895,49.4217021 128.122121,43.8938899 L128.122121,43.8938899 Z M82.8018984,87.830679 C80.2715265,92.2183886 77.8609975,96.6393627 75.5753239,101.068539 C72.3906004,93.5156998 69.6661103,86.0886276 67.440586,78.9171899 C74.7446255,77.2826781 82.5335049,75.9461789 90.6495601,74.9332099 C87.9610684,79.1268011 85.3391054,83.4302106 82.8018984,87.8297677 L82.8018984,87.830679 L82.8018984,87.830679 Z M90.8833221,153.182899 C82.4979621,152.247395 74.5919739,150.979704 67.289757,149.390303 C69.5508242,142.09082 72.3354636,134.505173 75.5876271,126.789657 C77.8792246,131.215644 80.2993228,135.638441 82.8451877,140.03572 L82.8456433,140.03572 C85.4388987,144.515476 88.1255676,148.90364 90.8833221,153.182899 L90.8833221,153.182899 Z M128.424691,184.213105 C123.24137,178.620587 118.071264,172.434323 113.021912,165.780078 C117.923624,165.972373 122.921029,166.0708 128.000001,166.0708 C133.217953,166.0708 138.376211,165.953235 143.45336,165.727219 C138.468257,172.501308 133.434855,178.697141 128.424691,184.213105 L128.424691,184.213105 Z M180.622896,126.396409 C184.044571,134.195313 186.929004,141.741317 189.219234,148.9164 C181.796719,150.609693 173.782736,151.973534 165.339049,152.986959 C167.996555,148.775595 170.619884,144.430263 173.197646,139.960532 C175.805484,135.438399 178.28163,130.90943 180.622896,126.396409 L180.622896,126.396409 Z M163.724586,134.496971 C159.722835,141.435557 155.614455,148.059271 151.443648,154.311611 C143.847063,154.854776 135.998946,155.134562 128.000001,155.134562 C120.033408,155.134562 112.284171,154.887129 104.822013,154.402745 C100.48306,148.068386 96.285368,141.425078 92.3091341,134.556664 L92.3100455,134.556664 C88.3442923,127.706935 84.6943232,120.799333 81.3870228,113.930466 C84.6934118,107.045648 88.3338117,100.130301 92.276781,93.292874 L92.2758697,93.294241 C96.2293193,86.4385872 100.390102,79.8276317 104.688954,73.5329157 C112.302398,72.9573964 120.109505,72.6571055 127.999545,72.6571055 L128.000001,72.6571055 C135.925583,72.6571055 143.742714,72.9596746 151.353879,73.5402067 C155.587114,79.7888993 159.719645,86.3784378 163.688588,93.2350031 C167.702644,100.168578 171.389978,107.037901 174.724618,113.77508 C171.400003,120.627999 167.720871,127.566587 163.724586,134.496971 L163.724586,134.496971 Z M186.284677,12.3729198 C194.857321,17.3165548 198.191049,37.2542268 192.804953,63.3986692 C192.461372,65.0669011 192.074504,66.7661189 191.654369,68.4881206 C181.03346,66.0374921 169.500286,64.2138746 157.425315,63.0810626 C150.391035,53.0639249 143.101577,43.9572289 135.784778,36.073113 C137.751934,34.1806885 139.716356,32.3762092 141.672575,30.673346 C160.572216,14.2257007 178.236518,7.73185406 186.284677,12.3729198 L186.284677,12.3729198 Z M128.000001,90.8080696 C140.624975,90.8080696 150.859926,101.042565 150.859926,113.667995 C150.859926,126.292969 140.624975,136.527922 128.000001,136.527922 C115.375026,136.527922 105.140075,126.292969 105.140075,113.667995 C105.140075,101.042565 115.375026,90.8080696 128.000001,90.8080696 L128.000001,90.8080696 Z" fill="#00D8FF"></path></g></svg></symbol>

  <!-- + tailwindcss -->
  <symbol id="tailwindcss" viewBox="0 0 128 128"><svg viewBox="0 0 128 128" fill="none" xmlns="http://www.w3.org/2000/svg"><g clip-path="url(#clip0_1804_67)"><path d="M64.004 25.6021C46.937 25.6021 36.274 34.1321 32.004 51.1991C38.402 42.6681 45.871 39.4691 54.402 41.6021C59.273 42.8161 62.754 46.3481 66.609 50.2621C72.883 56.6291 80.145 64.0001 96.004 64.0001C113.07 64.0001 123.734 55.469 128.004 38.3981C121.605 46.9341 114.137 50.1331 105.605 48.0001C100.735 46.7851 97.258 43.2541 93.398 39.3401C87.128 32.9731 79.868 25.6021 64.004 25.6021ZM32.004 64.0001C14.938 64.0001 4.27403 72.5311 0.00402832 89.6021C6.40203 81.0661 13.87 77.8671 22.402 80.0001C27.273 81.2151 30.754 84.7461 34.609 88.6601C40.883 95.0271 48.145 102.398 64.004 102.398C81.07 102.398 91.734 93.8681 96.004 76.8011C89.605 85.3321 82.137 88.5311 73.605 86.3981C68.735 85.1841 65.258 81.6521 61.398 77.7381C55.128 71.3711 47.868 64.0001 32.004 64.0001Z" fill="#38BDF8"/></g><defs><clipPath id="clip0_1804_67"><rect width="128" height="128" fill="white"/></clipPath></defs></svg></symbol>
  <!-- + sass -->
  <symbol id="sass" viewBox="0 0 256 192"><svg viewBox="0 0 256 192" version="1.1" xmlns="http://www.w3.org/2000/svg" xmlns:xlink="http://www.w3.org/1999/xlink" preserveAspectRatio="xMidYMid"><g fill="#CD6799"><path d="M220.281239,110.513661 C211.374863,110.560291 203.634244,112.705282 197.152641,115.876138 C194.774499,111.166485 192.396357,106.969763 191.976685,103.892168 C191.510383,100.301639 190.95082,98.1100182 191.510383,93.8200364 C192.069945,89.5300546 194.587978,83.4214936 194.541348,82.9551913 C194.494718,82.4888889 193.981785,80.2972678 188.852459,80.2506375 C183.723133,80.2040073 179.29326,81.2298725 178.780328,82.5821494 C178.267395,83.9344262 177.28816,87.0120219 176.635337,90.182878 C175.749362,94.8459016 166.376685,111.492896 161.014208,120.21275 C159.288889,116.808743 157.796721,113.824408 157.47031,111.446266 C157.004007,107.855738 156.444444,105.664117 157.004007,101.374135 C157.56357,97.084153 160.081603,90.975592 160.034973,90.5092896 C159.988342,90.0429872 159.47541,87.8513661 154.346084,87.8047359 C149.216758,87.7581056 144.786885,88.7839709 144.273953,90.1362477 C143.76102,91.4885246 143.201457,94.6593807 142.128962,97.7369763 C141.056466,100.814572 128.606193,128.606193 125.342077,135.78725 C123.663388,139.471038 122.217851,142.408743 121.191985,144.413843 L121.191985,144.413843 C121.191985,144.413843 121.145355,144.553734 121.005464,144.786885 C120.11949,146.512204 119.606557,147.444809 119.606557,147.444809 C119.606557,147.444809 119.606557,147.444809 119.606557,147.491439 C118.907104,148.750455 118.16102,149.916211 117.787978,149.916211 C117.508197,149.916211 116.995264,146.558834 117.881239,141.989071 C119.746448,132.336612 124.176321,117.321676 124.12969,116.808743 C124.12969,116.528962 124.969035,113.917668 121.238616,112.565392 C117.601457,111.213115 116.295811,113.451366 115.969399,113.451366 C115.642987,113.451366 115.409836,114.24408 115.409836,114.24408 C115.409836,114.24408 119.466667,97.3639344 107.669217,97.3639344 C100.301639,97.3639344 90.1362477,105.430965 85.1001821,112.705282 C81.929326,114.430601 75.1679417,118.11439 67.940255,122.07796 C65.189071,123.616758 62.3446266,125.155556 59.6867031,126.601093 C59.5001821,126.414572 59.3136612,126.181421 59.1271403,125.9949 C44.8582878,110.746812 18.4655738,99.9752277 19.5846995,79.5045537 C20.0043716,72.0437158 22.5690346,52.4590164 70.2717668,28.6775956 C109.534426,9.32604736 140.776685,14.6885246 146.185792,26.579235 C153.926412,43.5526412 129.445537,75.0746812 88.8772313,79.6444444 C73.3959927,81.3697632 65.2823315,75.4010929 63.2306011,73.1628415 C61.0856102,70.8313297 60.7591985,70.691439 59.9664845,71.1577413 C58.6608379,71.8571949 59.5001821,73.9555556 59.9664845,75.1679417 C61.1788707,78.3387978 66.168306,83.9344262 74.6083789,86.6856102 C82.0692168,89.1103825 100.208379,90.4626594 122.17122,81.9759563 C146.745355,72.463388 165.957013,46.0240437 160.314754,23.8746812 C154.672495,1.3989071 117.368306,-6.01530055 82.0692168,6.52823315 C61.0856102,13.989071 38.3300546,25.7398907 21.9628415,41.0346084 C2.51803279,59.2204007 -0.559562842,75.028051 0.699453552,81.6495446 C5.22258652,105.151184 37.6306011,120.445902 50.5938069,131.777049 C49.9409836,132.150091 49.3347905,132.476503 48.8218579,132.756284 C42.340255,135.97377 17.6262295,148.890346 11.4710383,162.553005 C4.47650273,178.034244 12.5901639,189.13224 17.9526412,190.624408 C34.5996357,195.240801 51.7129326,186.940619 60.8990893,173.23133 C70.0852459,159.52204 68.9661202,141.70929 64.7227687,133.548998 C64.6761384,133.455738 64.6295082,133.362477 64.5362477,133.269217 C66.2149362,132.289982 67.940255,131.264117 69.6189435,130.284882 C72.9296903,128.326412 76.1938069,126.507832 78.9916211,125.015665 C77.4061931,129.352277 76.2404372,134.528233 75.6808743,141.989071 C74.9814208,150.755556 78.571949,162.133333 83.2816029,166.609836 C85.3799636,168.568306 87.8513661,168.614936 89.4367942,168.614936 C94.9391621,168.614936 97.4105647,164.045173 100.161749,158.636066 C103.519126,152.014572 106.550091,144.320583 106.550091,144.320583 C106.550091,144.320583 102.773042,165.117668 113.031694,165.117668 C116.762113,165.117668 120.539162,160.268124 122.217851,157.796721 L122.217851,157.843352 C122.217851,157.843352 122.311111,157.703461 122.497632,157.377049 C122.870674,156.770856 123.103825,156.397814 123.103825,156.397814 L123.103825,156.304554 C124.595993,153.69326 127.95337,147.77122 132.942805,137.93224 C139.377778,125.248816 145.579599,109.394536 145.579599,109.394536 C145.579599,109.394536 146.139162,113.264845 148.051002,119.699818 C149.170128,123.476867 151.501639,127.626958 153.366849,131.637158 C151.874681,133.735519 150.942077,134.901275 150.942077,134.901275 C150.942077,134.901275 150.942077,134.901275 150.988707,134.947905 C149.776321,136.533333 148.470674,138.258652 147.025137,139.937341 C141.942441,145.999271 135.88051,152.947177 135.041166,154.952277 C134.061931,157.330419 134.295082,159.055738 136.160291,160.454645 C137.512568,161.48051 139.937341,161.620401 142.408743,161.48051 C146.978506,161.154098 150.195993,160.034973 151.781421,159.335519 C154.252823,158.449545 157.143898,157.097268 159.848452,155.092168 C164.837887,151.408379 167.868852,146.139162 167.589071,139.191257 C167.44918,135.367577 166.190164,131.543898 164.651366,127.95337 C165.117668,127.300546 165.537341,126.647723 166.003643,125.9949 C173.884153,114.477231 179.992714,101.840437 179.992714,101.840437 C179.992714,101.840437 180.552277,105.710747 182.464117,112.145719 C183.396721,115.409836 185.308561,118.953734 186.98725,122.404372 C179.573042,128.419672 175.003279,135.414208 173.37122,139.983971 C170.433515,148.470674 172.718397,152.294353 177.055009,153.180328 C179.013479,153.6 181.811293,152.667395 183.863024,151.781421 C186.474317,150.942077 189.551913,149.496539 192.489617,147.351548 C197.479053,143.66776 202.281967,138.538434 202.002186,131.590528 C201.862295,128.419672 201.022951,125.295446 199.857195,122.264481 C206.152277,119.653188 214.265938,118.20765 224.617851,119.420036 C246.813843,122.03133 251.197086,135.88051 250.357741,141.70929 C249.518397,147.538069 244.855373,150.708925 243.316576,151.68816 C241.777778,152.667395 241.264845,152.993807 241.404736,153.69326 C241.591257,154.719126 242.337341,154.672495 243.642987,154.485974 C245.461566,154.159563 255.300546,149.776321 255.720219,139.051366 C256.419672,125.342077 243.363206,110.37377 220.281239,110.513661 L220.281239,110.513661 Z M49.0550091,168.241894 C41.6874317,176.262295 31.4287796,179.29326 26.9989071,176.728597 C22.242623,173.977413 24.1078324,162.133333 33.1540984,153.64663 C38.6564663,148.470674 45.7442623,143.66776 50.4539162,140.730055 C51.5264117,140.077231 53.1118397,139.144627 55.0236794,137.978871 C55.3500911,137.79235 55.536612,137.699089 55.536612,137.699089 L55.536612,137.699089 C55.9096539,137.465938 56.2826958,137.232787 56.6557377,136.999636 C59.9664845,149.123497 56.7956284,159.801821 49.0550091,168.241894 L49.0550091,168.241894 Z M102.679781,131.777049 C100.115118,138.025501 94.7526412,154.019672 91.4885246,153.133698 C88.6907104,152.387614 86.9653916,140.263752 90.9289617,128.279781 C92.9340619,122.264481 97.1774135,115.083424 99.648816,112.28561 C103.659016,107.809107 108.088889,106.31694 109.161384,108.135519 C110.513661,110.513661 104.265209,127.860109 102.679781,131.777049 L102.679781,131.777049 Z M146.931876,152.947177 C145.859381,153.50674 144.833515,153.879781 144.367213,153.6 C144.040801,153.413479 144.833515,152.667395 144.833515,152.667395 C144.833515,152.667395 150.382514,146.698725 152.574135,143.994171 C153.833151,142.408743 155.325319,140.543534 156.910747,138.445173 L156.910747,139.051366 C156.910747,146.185792 150.009472,150.988707 146.931876,152.947177 L146.931876,152.947177 Z M181.065209,145.159927 C180.272495,144.600364 180.412386,142.735155 183.07031,136.906375 C184.096175,134.621494 186.520947,130.797814 190.671038,127.114026 C191.137341,128.606193 191.463752,130.05173 191.417122,131.404007 C191.370492,140.403643 184.935519,143.76102 181.065209,145.159927 L181.065209,145.159927 Z"></path></g></svg></symbol>
  <!-- + git -->
  <symbol id="git" viewBox="0 0 16 17"><svg viewBox="0 0 16 17" fill="none" xmlns="http://www.w3.org/2000/svg"><g clip-path="url(#clip0_1905_205)"><path d="M15.5921 7.93584L8.70263 1.04659C8.30613 0.649836 7.66263 0.649836 7.2655 1.04659L5.835 2.47734L7.64975 4.29209C8.07163 4.14971 8.55513 4.24521 8.89125 4.58134C9.22913 4.91959 9.32388 5.40721 9.178 5.83046L10.927 7.57959C11.3501 7.43371 11.8385 7.52796 12.1763 7.86646C12.6488 8.33859 12.6488 9.10396 12.1763 9.57634C12.064 9.68868 11.9306 9.77779 11.7839 9.83859C11.6372 9.89939 11.4799 9.93069 11.3211 9.93069C11.1622 9.93069 11.005 9.89939 10.8582 9.83859C10.7115 9.77779 10.5782 9.68868 10.4659 9.57634C10.2972 9.40753 10.1822 9.19259 10.1354 8.95858C10.0885 8.72457 10.112 8.48193 10.2028 8.26121L8.57175 6.63021L8.5715 10.9228C8.68984 10.9811 8.79788 11.0583 8.89138 11.1513C9.36363 11.6235 9.36363 12.3886 8.89138 12.8617C8.419 13.3338 7.65338 13.3338 7.1815 12.8617C6.70925 12.3887 6.70925 11.6236 7.1815 11.1513C7.29464 11.038 7.42922 10.9484 7.57738 10.8876V6.55521C7.4291 6.49461 7.29449 6.40488 7.1815 6.29134C6.82375 5.93384 6.73763 5.40884 6.92113 4.96934L5.132 3.18021L0.408002 7.90396C0.217416 8.09461 0.110352 8.35314 0.110352 8.62271C0.110352 8.89228 0.217416 9.15082 0.408002 9.34146L7.29763 16.2307C7.69438 16.6275 8.33763 16.6275 8.735 16.2307L15.5923 9.37346C15.7828 9.18276 15.8898 8.9242 15.8898 8.65462C15.8898 8.38504 15.7827 8.1265 15.5921 7.93584Z" fill="#F34F29"/></g><defs><clipPath id="clip0_1905_205"><rect width="16" height="16" fill="white" transform="translate(0 0.638672)"/></clipPath></defs></svg></symbol>
  <!-- + firebase -->
  <symbol id="firebase" viewBox="0 0 256 351"><svg viewBox="0 0 256 351" version="1.1" xmlns="http://www.w3.org/2000/svg" xmlns:xlink="http://www.w3.org/1999/xlink" preserveAspectRatio="xMidYMid"><defs><path d="M1.25273437,280.731641 L2.85834533,277.600858 L102.211177,89.0833546 L58.0613266,5.6082033 C54.3920011,-1.28304578 45.0741245,0.473674398 43.8699203,8.18789086 L1.25273437,280.731641 Z" id="path-1"></path><filter x="-50%" y="-50%" width="200%" height="200%" filterUnits="objectBoundingBox" id="filter-2"><feGaussianBlur stdDeviation="17.5" in="SourceAlpha" result="shadowBlurInner1"></feGaussianBlur><feOffset dx="0" dy="0" in="shadowBlurInner1" result="shadowOffsetInner1"></feOffset><feComposite in="shadowOffsetInner1" in2="SourceAlpha" operator="arithmetic" k2="-1" k3="1" result="shadowInnerInner1"></feComposite><feColorMatrix values="0 0 0 0 0   0 0 0 0 0   0 0 0 0 0  0 0 0 0.06 0" type="matrix" in="shadowInnerInner1"></feColorMatrix></filter><path d="M134.417103,148.974235 L166.455722,116.161738 L134.417104,55.1546874 C131.374828,49.3635911 123.983911,48.7568362 120.973828,54.5646483 L103.26875,88.6738296 L102.739423,90.4175473 L134.417103,148.974235 Z" id="path-3"></path><filter x="-50%" y="-50%" width="200%" height="200%" filterUnits="objectBoundingBox" id="filter-4"><feGaussianBlur stdDeviation="3.5" in="SourceAlpha" result="shadowBlurInner1"></feGaussianBlur><feOffset dx="1" dy="-9" in="shadowBlurInner1" result="shadowOffsetInner1"></feOffset><feComposite in="shadowOffsetInner1" in2="SourceAlpha" operator="arithmetic" k2="-1" k3="1" result="shadowInnerInner1"></feComposite><feColorMatrix values="0 0 0 0 0   0 0 0 0 0   0 0 0 0 0  0 0 0 0.09 0" type="matrix" in="shadowInnerInner1"></feColorMatrix></filter></defs><g><path d="M0,282.99762 L2.12250746,280.0256 L102.527363,89.5119284 L102.739423,87.4951323 L58.478806,4.35817711 C54.7706269,-2.60604179 44.3313035,-0.845245771 43.1143483,6.95065473 L0,282.99762 Z" fill="#FFC24A"></path><g><use fill="#FFA712" fill-rule="evenodd" xlink:href="#path-1"></use><use fill="black" fill-opacity="1" filter="url(#filter-2)" xlink:href="#path-1"></use></g><path d="M135.004975,150.380704 L167.960199,116.629461 L134.995423,53.6993114 C131.866109,47.7425353 123.128817,47.7253411 120.032618,53.6993112 L102.421015,87.2880848 L102.421015,90.1487443 L135.004975,150.380704 Z" fill="#F4BD62"></path><g><use fill="#FFA50E" fill-rule="evenodd" xlink:href="#path-3"></use><use fill="black" fill-opacity="1" filter="url(#filter-4)" xlink:href="#path-3"></use></g><polygon fill="#F6820C" points="0 282.99762 0.962097168 282.030396 4.45771144 280.60956 132.935323 152.60956 134.563025 148.178595 102.513123 87.1048584"></polygon><path d="M139.120971,347.551268 L255.395916,282.703666 L222.191698,78.2093373 C221.153051,71.8112478 213.303658,69.2818149 208.724314,73.8694368 L0.000254726368,282.997875 L115.608454,347.545536 C122.914643,351.624979 131.812872,351.62689 139.120971,347.551268" fill="#FDE068"></path><path d="M254.354084,282.159837 L221.401937,79.2179369 C220.371175,72.8684188 213.843792,70.2409553 209.299213,74.79375 L1.28945312,282.600785 L115.627825,346.509458 C122.878548,350.557931 131.709226,350.559827 138.961846,346.515146 L254.354084,282.159837 Z" fill="#FCCA3F"></path><path d="M139.120907,345.64082 C131.812808,349.716442 122.914579,349.714531 115.60839,345.635089 L0.93134768,282.014551 L0.000191044776,282.997875 L115.60839,347.545536 C122.914579,351.624979 131.812808,351.62689 139.120907,347.551268 L255.395853,282.703666 L255.111196,280.951785 L139.120907,345.64082 Z" fill="#EEAB37"></path></g></svg></symbol>
  <!-- + mysql -->
  <symbol id="mysql" viewBox="0 0 256 252"><svg viewBox="0 0 256 252" version="1.1" xmlns="http://www.w3.org/2000/svg" xmlns:xlink="http://www.w3.org/1999/xlink" preserveAspectRatio="xMidYMid"><path d="M235.648276,194.211632 C221.729851,193.864559 210.942872,195.257272 201.895604,199.083964 C199.285899,200.127406 195.109927,200.128498 194.761767,203.433458 C196.154498,204.826189 196.328034,207.087716 197.546096,209.001055 C199.635192,212.479551 203.287247,217.178343 206.593317,219.614507 C210.246461,222.397748 213.900691,225.180989 217.727416,227.617153 C224.513092,231.793125 232.168625,234.22817 238.779677,238.404123 C242.608577,240.838067 246.434123,243.971711 250.261934,246.581411 C252.176407,247.971926 253.393381,250.234545 255.829549,251.104446 L255.829549,250.582732 C254.611442,249.016479 254.263282,246.754952 253.046308,245.015144 C251.307592,243.275341 249.566702,241.709083 247.826899,239.96928 C242.781025,233.1847 236.518133,227.268984 229.732547,222.397748 C224.166065,218.56995 211.986355,213.35055 209.724764,206.913051 C209.724764,206.913051 209.55014,206.73951 209.376604,206.56597 C213.204371,206.217787 217.727416,204.82618 221.381691,203.781623 C227.297466,202.215374 232.690457,202.563548 238.779677,200.998382 C241.562919,200.30203 244.347292,199.432129 247.130533,198.562222 L247.130533,196.997075 C244.00022,193.864532 241.737588,189.689684 238.431517,186.731778 C229.558965,179.075113 219.815379,171.595269 209.724764,165.332394 C204.330685,161.852792 197.371472,159.590151 191.630412,156.633369 C189.543536,155.587729 186.062797,155.06712 184.845823,153.327299 C181.713302,149.499523 179.973499,144.45476 177.711982,139.930579 C172.668329,130.360605 167.794863,119.749306 163.44541,109.658665 C160.315096,102.872993 158.400651,96.0872892 154.572862,89.8245233 C136.653166,60.2479054 117.167095,42.3281102 87.242308,24.7554574 C80.8048232,21.1023052 73.1503779,19.5360541 64.9730628,17.6227124 C60.6246649,17.4480683 56.2740469,17.1009966 51.9245072,16.9263525 C49.1412661,15.7082579 46.3569195,12.4033092 43.9207465,10.8370441 C34.0058755,4.5730961 8.42942301,-8.99607108 1.1220548,8.92370237 C-3.57563582,20.2324516 8.08126754,31.366477 12.0825475,37.1086812 C15.041536,41.1100178 18.8682195,45.6330512 20.9562053,50.1572463 C22.1742941,53.1129226 22.5213621,56.2465484 23.7394509,59.3779766 C26.523793,67.031339 29.1323922,75.5578744 32.7866404,82.691806 C34.7010855,86.3449577 36.7879657,90.1727422 39.2241297,93.477666 C40.6157457,95.3910055 43.0508086,96.2620126 43.5736286,99.3934363 C41.1385747,102.873029 40.9639284,108.092452 39.5711977,112.441992 C33.3083548,132.101492 35.7445143,156.4588 44.617071,170.89889 C47.4003121,175.247297 54.0124069,184.818421 62.8850316,181.164182 C70.7141415,178.032744 68.9743337,168.115626 71.2358604,159.41661 C71.7586894,157.327523 71.4105022,155.937017 72.4539446,154.545383 C72.4548508,154.718924 72.4539446,154.893561 72.4539446,154.893561 C74.8901041,159.764788 77.3251715,164.46251 79.5866891,169.333656 C84.980736,177.858025 94.3750434,186.731674 102.204103,192.647503 C106.381181,195.777808 109.686136,201.171877 114.905523,203.086313 L114.905523,202.563484 L114.557345,202.563484 C113.512801,200.997231 111.947645,200.301958 110.55602,199.083892 C107.424591,195.952463 103.943884,192.124665 101.50883,188.645081 C94.2025447,178.901486 87.7639408,168.115635 82.0228486,156.980496 C79.2396075,151.587555 76.8034481,145.671734 74.5419214,140.278811 C73.497378,138.189729 73.497378,135.059406 71.7575748,134.015973 C69.1478745,137.842647 65.3211911,141.148717 63.4067461,145.846417 C60.1028916,153.327344 59.7536034,162.548097 58.5355192,172.116947 C57.8402503,172.291598 58.187332,172.116947 57.8391493,172.465138 C52.2726627,171.072408 50.3582176,165.332394 48.2701955,160.460052 C43.0507905,148.107926 42.1808935,128.273684 46.7050387,114.008236 C47.923123,110.353988 53.142528,98.8717128 51.0545422,95.3921019 C50.0110998,92.0860273 46.5303924,90.1726969 44.6170529,87.5629967 C42.3555262,84.2569266 39.9193668,80.082065 38.35421,76.4278576 C34.1782383,66.6853811 32.0902615,55.898411 27.5672354,46.1548154 C25.4792496,41.6306665 21.8261069,36.9340837 18.8682195,32.7592063 C15.563264,28.0615284 11.9090067,24.7554574 9.29927023,19.1878506 C8.43046966,17.2745089 7.21128439,14.1430915 8.60290945,12.0550966 C8.95109211,10.6634847 9.64634733,10.1417599 11.0390689,9.79357497 C13.3005955,7.87912949 19.7380848,10.3152907 21.9995616,11.3587363 C28.4370509,13.9673251 33.8300058,16.4046087 39.2240527,20.0577513 C41.6591111,21.7975523 44.2688113,25.1036232 47.4002396,25.9735239 L51.0544833,25.9735239 C56.6220709,27.1905053 62.8849274,26.3216898 68.1043279,27.8868652 C77.3261638,30.843648 85.6758644,35.1942543 93.1579696,39.8919512 C115.95003,54.332049 134.738553,74.8626147 147.440063,99.3934454 C149.528049,103.39367 150.396845,107.04901 152.31129,111.22389 C155.965538,119.749365 160.488578,128.448376 164.14173,136.799218 C167.794872,144.975401 171.274474,153.327362 176.493861,160.113048 C179.104667,163.765094 189.542403,165.67953 194.240026,167.593975 C197.719632,169.159141 203.113711,170.551871 206.245112,172.465206 C212.159801,176.117243 218.075576,180.29433 223.643145,184.295646 C226.427474,186.382535 235.125402,190.733144 235.648231,194.21165 L235.648276,194.211632 L235.648276,194.211632 Z" fill="#00546B"></path><path d="M58.1864892,43.0222644 C55.2286063,43.0222644 53.1417305,43.3715526 51.0537447,43.8932806 C51.0537447,43.8923744 51.0537447,44.0679225 51.0537447,44.2414633 L51.4019319,44.2414633 C52.794658,47.0247034 55.2286154,48.9391485 56.968414,51.3741978 C58.3611446,54.1574389 59.5781143,56.9417945 60.9708449,59.7261412 C61.1443766,59.5514948 61.3179175,59.3779585 61.3179175,59.3779585 C63.7551915,57.6370498 64.9721657,54.8538087 64.9721657,50.6789426 C63.9276177,49.4608583 63.7540769,48.2427786 62.8841798,47.0246944 C61.8407374,45.283782 59.5781052,44.414995 58.1864892,43.0222644 L58.1864892,43.0222644 L58.1864892,43.0222644 Z" fill="#00546B"></path></svg></symbol>
  <!-- postgresql -->
  <symbol id="postgresql" viewBox="0 0 256 264"><svg xmlns="http://www.w3.org/2000/svg" preserveAspectRatio="xMidYMid" viewBox="0 0 256 264"><path d="M255 158c-2-5-6-8-11-9l-8 1-14 2c12-20 22-43 27-65 9-34 5-50-1-57a77 77 0 0 0-62-30c-14 0-27 3-33 5l-19-2c-12 0-24 3-33 8L78 5c-23-3-42 0-55 9C7 26-1 46 0 74a342 342 0 0 0 28 97c7 14 14 22 23 24 5 2 13 3 22-4l5 4 9 3c11 3 22 2 31-1a643 643 0 0 1 0 10 109 109 0 0 0 5 33c1 4 4 11 9 16 6 6 13 8 20 8l9-1c10-2 21-6 29-17s11-27 12-53v-2l1-2 1 1h1c10 0 22-2 30-6 5-2 24-12 20-26"/><path d="M238 161c-30 6-32-4-32-4 32-47 45-106 33-120-31-40-84-21-85-21l-20-2c-14 0-24 4-32 10 0 0-95-40-91 49 1 19 28 143 59 106l22-26c6 4 12 6 19 5h1v5c-8 9-6 10-22 14-16 3-7 9 0 11s25 4 36-12v2c3 2 5 16 5 29-1 12-1 21 2 27 2 7 5 22 26 18 17-4 27-14 28-30 1-12 3-10 3-20l1-5c2-16 1-21 12-19l2 1c8 0 19-2 25-5 13-6 21-16 8-13" fill="#336791"/><path d="M108 82h-6l-1 2 1 3c1 2 3 3 5 3h1c3 0 6-2 6-4 1-2-3-4-6-4M197 82c0-2-4-3-7-2-3 0-6 1-6 3 1 2 3 4 6 4h1l4-2 2-3" fill="#FFF"/><path d="M248 160c-1-3-5-5-11-3-18 3-24 1-27-1 14-21 26-47 32-71 3-11 5-22 5-30 0-10-2-17-5-21a70 70 0 0 0-57-27c-16 0-30 4-33 6-5-2-12-3-18-3-13 0-23 3-32 9-4-2-14-5-26-7-21-3-37-1-49 8C13 30 6 48 8 73c0 8 5 35 13 60 10 33 21 51 32 55l5 1c4 0 9-2 14-9l21-22c4 2 9 3 14 3v1l-2 3c-4 5-5 5-16 8-3 0-12 2-12 8 0 7 10 10 11 10l12 1c9 0 17-3 24-8-1 23 0 46 3 53 3 6 8 20 26 20l9-1c18-4 26-12 29-30l6-45 11 1c8 0 17-2 23-5 7-3 19-10 17-17Zm-44-83-1 10-2 12 1 14c1 9 3 19-2 28l-2-4-3-6c-7-12-22-39-14-50 2-3 8-6 23-4Zm-18-62c21 0 38 8 50 23 9 12-1 65-30 111l-1-1c7-13 6-25 5-36l-1-13 1-11a72 72 0 0 0 1-16c0-5-6-20-18-34-6-7-16-16-28-21l21-2ZM67 176c-6 7-10 6-12 5-8-3-19-21-27-51-8-25-13-50-13-57-1-23 4-39 16-47 20-14 52-6 64-2v1C74 46 74 82 74 85v3c1 7 2 18 0 31a38 38 0 0 0 12 34l-19 23Zm22-30c-6-7-9-16-8-26 2-14 1-26 1-32v-2c3-3 17-11 27-8 5 1 8 4 9 9 6 28 1 40-4 50l-2 5-1 2-3 10c-7 0-14-3-19-8Zm1 38-5-2 6-2c13-3 15-5 19-10l4-5c3-3 4-2 6-1 1 0 3 2 4 5l-1 4c-9 13-23 13-33 11Zm70 65c-16 3-22-5-26-15a293 293 0 0 1-3-67c-2-5-5-9-8-10-2-1-5-2-8-1l3-10 1-1 2-5c5-10 11-24 4-54-2-12-11-17-23-16a54 54 0 0 0-20 7c1-12 5-33 18-47 9-8 20-13 34-12 27 0 44 14 54 26 8 10 13 20 15 25-14-1-23 1-28 8-10 15 6 44 13 57l3 6 8 13 2 2c-4 2-11 4-11 18l-6 51c-3 16-8 21-24 25Zm68-78c-4 2-11 3-18 3-8 1-11 0-12-1-1-9 3-10 6-11h2l1 1c6 4 16 4 31 1h1l-11 7Z" fill="#FFF"/></svg></symbol>
  <!-- + github -->
  <symbol id="github" viewBox="0 0 24 24"><svg xmlns="http://www.w3.org/2000/svg" viewBox="0 0 24 24" fill="none" stroke="currentColor" stroke-width="2" stroke-linecap="round" stroke-linejoin="round" class="lucide lucide-github"><path d="M15 22v-4a4.8 4.8 0 0 0-1-3.5c3 0 6-2 6-5.5.08-1.25-.27-2.48-1-3.5.28-1.15.28-2.35 0-3.5 0 0-1 0-3 1.5-2.64-.5-5.36-.5-8 0C6 2 5 2 5 2c-.3 1.15-.3 2.35 0 3.5A5.403 5.403 0 0 0 4 9c0 3.5 3 5.5 6 5.5-.39.49-.68 1.05-.85 1.65-.17.6-.22 1.23-.15 1.85v4"/><path d="M9 18c-4.51 2-5-2-7-2"/></svg></symbol>
  <!-- + css3 -->
  <symbol id="css3" viewBox="0 0 16 16"><svg viewBox="0 0 16 16" fill="none" xmlns="http://www.w3.org/2000/svg"><path d="M2.35172 14.2653L1.09497 0.168945H14.905L13.647 14.2632L7.9916 15.8311L2.35172 14.2653Z" fill="#1572B6"/><path d="M8.00024 14.6325L12.5701 13.3655L13.6452 1.32129H8.00024V14.6325Z" fill="#33A9DC"/><path d="M8.00024 6.42845H10.288L10.446 4.65807H8.00024V2.9292H12.3355L12.294 3.39307L11.869 8.15732H8.00024V6.42845Z" fill="white"/><path d="M8.01037 10.9185L8.00274 10.9207L6.07737 10.4008L5.95424 9.02197H4.21899L4.46112 11.7366L8.00249 12.7195L8.01037 12.7172V10.9185Z" fill="#EBEBEB"/><path d="M10.1409 8.08447L9.93264 10.3997L8.00439 10.9202V12.719L11.5486 11.7367L11.5746 11.4446L11.8754 8.08447H10.1409Z" fill="white"/><path d="M8.00604 2.9292V4.65807H3.83004L3.79542 4.26957L3.71667 3.39307L3.67529 2.9292H8.00604ZM8.00017 6.4287V8.15757H6.09904L6.06442 7.76907L5.98554 6.89257L5.94429 6.4287H8.00017Z" fill="#EBEBEB"/></svg></symbol>
  <!-- + html5 -->
  <symbol id="html5" viewBox="0 0 17 17"><svg width="17" height="17" viewBox="0 0 17 17" fill="none" xmlns="http://www.w3.org/2000/svg"><path d="M3.66842 14.225L2.54492 1.62451H14.8899L13.7649 14.223L8.70992 15.6245L3.66842 14.225Z" fill="#E44F26"/><path d="M8.71753 14.5533L12.8025 13.4208L13.7635 2.65479H8.71753V14.5533Z" fill="#F1662A"/><path d="M8.71753 7.3282H6.67253L6.53153 5.7457H8.71753V4.2002H4.84253L4.87953 4.6152L5.25903 8.87369H8.71753V7.3282ZM8.71753 11.3417L8.71053 11.3437L6.98953 10.8792L6.87953 9.6467H5.32803L5.54453 12.0727L8.71053 12.9517L8.71753 12.9497V11.3417Z" fill="#EBEBEB"/><path d="M8.71191 7.3282V8.87369H10.6149L10.4359 10.8782L8.71191 11.3432V12.9512L11.8804 12.0727L11.9034 11.8117L12.2664 7.7432L12.3044 7.3282H8.71191ZM8.71191 4.2002V5.7457H12.4449L12.4759 5.3987L12.5464 4.6152L12.5834 4.2002H8.71191Z" fill="white"/></svg></symbol>
</svg>